# xmcd
#
# Track frame offsets:
#	151
#	18214
#	45061
#	74818
#	80451
#	88178
#	96347
#	135302
#	137701
#	150234
#
# Disc length: 2354 seconds
#
# Revision: 0
# Processed by: cddbd v1.4PL0 Copyright (c) Steve Scherf et al.
# Submitted via: EasyCDDAExtractor 4.6.0.1
#
DISCID=7409300a
DTITLE=Nave Dos Sonhos-As mais belas cantigas de roda  - As mais belas cantiga
DTITLE=s de roda 
DYEAR=1900
DGENRE=
TTITLE0=Abertura "Gogo e Ritmo"-Pirulito que Bate Bate-Ciranda, Cirandinha-Ai 
TTITLE0=Bota Aqui o Teu Pezinho-Cachorrinho-Gatinha Parda-Atirei o Pau no Gato
TTITLE1=Passa, Passa Gaviao-O Sapo-Meu Pintinho Amarelinho-Escravos de Jo-A B
TTITLE1=arata Diz Que Tem-Roda Piao-Cai, Cai Balao-Sabia
TTITLE2=O Sapo Nao Lava o Pe-Rebola Bola-Ai Eu Entrei na Roda-Sambalele-Coelhi
TTITLE2=nho da Pascoa-De Olhos Vermelhos-Coelhinho, Que Trazes?
TTITLE3=Sapo Cururu
TTITLE4=Pombinha Branca-Indiozinhos 
TTITLE5=Sitio do Vovo Tito
TTITLE6=Terezinha de Jesus-Meu Galinho-O Cravo e a Rosa-Capelinha de Melao-O T
TTITLE6=rem Maluco-A Rosa Juvenil-Na Bahia Tem-Meu Limao, Meu Limoeiro-Vai Abo
TTITLE6=bora, Vai MelaoBarca Nova-Alecrim do Campo-Alecrim do Campo-Papagaio L
TTITLE6=ouro
TTITLE7=Panderole
TTITLE8=Na Mao Direita Tem-Margarida-Carrocinha-Mestre Andre
TTITLE9=O Pastorzinho-Eu Sou Pobre, Pobre, Pobre-Marcha Soldado-Pai Francisco-
TTITLE9=Caranguejo-Eu Fui no Tororo
EXTD=
EXTT0=
EXTT1=
EXTT2=
EXTT3=
EXTT4=
EXTT5=
EXTT6=
EXTT7=
EXTT8=
EXTT9=
PLAYORDER=
